# xmcd CD database file
#
# Track frame offsets:
#	150
#	41026
#	58219
#	94901
#	128255
#	159926
#	185562
#	213040
#	246175
#	273605
#
# Disc length: 3956 seconds
#
# Revision: 2
# Processed by: cddbd v1.5.1PL2 Copyright (c) Steve Scherf et al.
# Submitted via: CDex 1.51
#
DISCID=880f720a
DTITLE=NIGEL HOLTON - This Journey
DYEAR=2004
DGENRE=New Age
TTITLE0=Happiness Within
TTITLE1=Amaroo Sunrise
TTITLE2=Coup de Grãce
TTITLE3=This Journey
TTITLE4=Incredible Miracle
TTITLE5=Basking At High Altitudes
TTITLE6='Round And 'Round
TTITLE7=Heartland
TTITLE8=We Are Not Alone
TTITLE9=Katmandu
EXTD=YEAR: 2004
EXTT0=
EXTT1=
EXTT2=
EXTT3=
EXTT4=
EXTT5=
EXTT6=
EXTT7=
EXTT8=
EXTT9=
PLAYORDER=
